# xmcd
#
# Track frame offsets: 
#        150
#        20112
#        34626
#        50235
#        67629
#        90640
#        110958
#        132174
#        146629
#
# Disc length: 2335 seconds
#
# Revision: 2
# Processed by: cddbd v1.5.2PL0 Copyright (c) Steve Scherf et al.
# Submitted via: ExactAudioCopy v1.0b1
#
DISCID=80091d09
DTITLE=Rodney Crowell - Ain't Living Long Like This
DYEAR=1977
DGENRE=Country
TTITLE0=Elvira
TTITLE1=(Now And Then, There's) A Fool Such As I
TTITLE2=Leaving Louisiana In The Broad Daylight
TTITLE3=Voila, An American Dream
TTITLE4=I Ain't Living Long Like This
TTITLE5=Baby, Better Start Turnin' 'Em Down
TTITLE6=Song For The Life
TTITLE7=I Thought I Heard You Callin' My Name
TTITLE8=California Earthquake (A Whole Lotta Shakin' Goin' On)
EXTD=
EXTT0=
EXTT1=
EXTT2=
EXTT3=
EXTT4=
EXTT5=
EXTT6=
EXTT7=
EXTT8=
PLAYORDER=
